# xmcd
#
# Track frame offsets:
#	150
#	10905
#	22807
#	33898
#	44484
#	53274
#	66495
#	78619
#	91086
#	100540
#	111106
#	120724
#	131963
#	145109
#	157769
#
# Disc length: 2262 seconds
#
# Revision: 0
# Processed by: cddbd v1.5.2PL0 Copyright (c) Steve Scherf et al.
# Submitted via: EasyCDDAExtractor 16.0.8.2
#
DISCID=b408d40f
DTITLE=Συλλογικός δίσκος - Τα καλύτερα ξένα τραγούδια 1960
DYEAR=1960
DGENRE=Ξένη
TTITLE0=Percy Faith - Theme from a summer place
TTITLE1=Neil Sedaka - You mean everything to me
TTITLE2=Roy Orbison - Only the lonely
TTITLE3=Johnny Kid and The Pirates - Shakin' all over
TTITLE4=Johnny Burnette - You're sixteen
TTITLE5=The Brothers Four - Green fields
TTITLE6=Brenda Lee - I'm sorry
TTITLE7=Paul Anka - Puppy love
TTITLE8=The Ventures - Walk, don't run
TTITLE9=Brian Hyland - Itsy bitsy teenie weenie yellow polka dot bikini
TTITLE10=Wanda Jackson - Let's have a party
TTITLE11=Bobby Vee - Rubber ball
TTITLE12=The Shadows - Apache
TTITLE13=Domenico Modugno - Volare
TTITLE14=Ricky Valence - Tell Laura i love her
EXTD=
EXTT0=
EXTT1=
EXTT2=
EXTT3=
EXTT4=
EXTT5=
EXTT6=
EXTT7=
EXTT8=
EXTT9=
EXTT10=
EXTT11=
EXTT12=
EXTT13=
EXTT14=
PLAYORDER=
